<?xml version="1.0" encoding="UTF-8" standalone="no"?>
<!-- Created with Inkscape (http://www.inkscape.org/) -->

<svg
   width="143.16656mm"
   height="89.20385mm"
   viewBox="0 0 143.16656 89.20385"
   version="1.1"
   id="svg5"
   inkscape:version="1.1.2 (0a00cf5339, 2022-02-04)"
   sodipodi:docname="e2ipi102.svg"
   inkscape:export-filename="/home/jmay/e2ipi102.png"
   inkscape:export-xdpi="22.796778"
   inkscape:export-ydpi="22.796778"
   xmlns:inkscape="http://www.inkscape.org/namespaces/inkscape"
   xmlns:sodipodi="http://sodipodi.sourceforge.net/DTD/sodipodi-0.dtd"
   xmlns="http://www.w3.org/2000/svg"
   xmlns:svg="http://www.w3.org/2000/svg">
  <sodipodi:namedview
     id="namedview7"
     pagecolor="#ffffff"
     bordercolor="#666666"
     borderopacity="1.0"
     inkscape:pageshadow="2"
     inkscape:pageopacity="0.0"
     inkscape:pagecheckerboard="0"
     inkscape:document-units="mm"
     showgrid="false"
     inkscape:zoom="0.5"
     inkscape:cx="373"
     inkscape:cy="361"
     inkscape:window-width="1883"
     inkscape:window-height="1104"
     inkscape:window-x="2560"
     inkscape:window-y="150"
     inkscape:window-maximized="0"
     inkscape:current-layer="layer1"
     fit-margin-top="0"
     fit-margin-left="0"
     fit-margin-right="0"
     fit-margin-bottom="0" />
  <defs
     id="defs2" />
  <g
     inkscape:label="Layer 1"
     inkscape:groupmode="layer"
     id="layer1"
     transform="translate(-27.815332,-45.569605)">
    <path
       d="m 41.513875,123.07144 q -6.546485,0.57274 -9.826036,-2.29054 -3.279551,-2.86329 -3.735413,-8.07376 -0.666247,-7.6153 1.905321,-14.383022 2.638372,-6.773568 7.586018,-11.002836 5.007442,-4.315274 11.15312,-4.85295 3.740836,-0.327282 6.503695,2.015786 2.755841,2.262907 3.183642,7.152728 0.245465,2.805635 -1.129656,4.783757 -1.315325,1.892115 -3.994727,3.580477 -2.686409,1.6082 -8.74126,4.72272 -5.481707,2.74127 -8.888902,4.57409 -0.161997,1.22579 -0.04983,2.50837 0.196361,2.2445 1.837979,3.3125 1.708421,1.06215 4.580851,0.81084 1.803626,-0.15779 4.064511,-1.24411 2.260885,-1.08633 2.742872,-2.50165 1.836406,-5.16872 3.706824,-5.33235 2.738835,-0.23962 3.786266,0.96114 1.107205,1.11476 1.307262,2.63197 -0.577192,2.6353 -2.683791,5.48514 -2.113606,2.76972 -5.573568,4.76869 -3.459973,1.99898 -7.735222,2.37301 z M 36.75489,101.75942 q 6.388866,-3.143732 10.474761,-5.682117 4.078877,-2.618545 3.889523,-4.782891 -0.08415,-0.961933 -1.00166,-1.447083 -0.924517,-0.565312 -1.926529,-0.477648 -2.004024,0.17533 -4.447949,2.246961 -2.377133,2.065787 -4.350126,4.903962 -1.972993,2.838174 -2.63802,5.238816 z"
       style="font-size:50.8px;line-height:1.25;font-family:Sriracha;-inkscape-font-specification:'Sriracha, Normal';letter-spacing:0px;word-spacing:0px;baseline-shift:baseline;fill:#ff473e;stroke-width:0.382584"
       id="path29298" />
    <path
       d="m 64.780691,58.994404 q -0.07018,-0.961933 -0.815375,-1.489501 -0.714758,-0.571156 -1.783573,-0.458946 -1.102211,0.115724 -1.947253,0.527533 -0.811624,0.408309 -1.524314,1.25049 -0.404987,0.44639 -0.542773,0.864728 -0.137775,0.418339 -0.227546,1.033572 -0.120241,0.658821 -0.366993,0.967437 -0.213345,0.30511 -0.948156,0.382255 -1.135618,0.119223 -1.880857,-0.408346 -0.711843,-0.531076 -0.790735,-1.613248 -0.09647,-1.322658 1.003706,-2.851712 1.100132,-1.529055 3.036957,-2.661301 1.936814,-1.132248 4.208039,-1.370695 1.937221,-0.203382 3.495767,0.400351 1.589016,0.560145 2.517537,1.755058 0.961917,1.191403 1.078803,2.794624 0.13442,1.843702 -0.918962,4.014044 -1.022912,2.126757 -2.588993,4.189376 -1.532674,2.059113 -3.920411,4.854192 -0.402061,0.486471 -1.391973,1.680856 -0.989923,1.194383 -1.663365,2.11322 -0.676368,0.878753 -1.094291,1.609213 1.504272,-0.602188 4.329952,-1.545041 2.82568,-0.942855 4.547895,-1.3256 0.230879,-0.06463 0.631686,-0.106711 0.634612,-0.06662 1.098031,0.288595 0.460504,0.315139 0.486805,0.675863 0.07887,1.082172 -0.468039,2.351211 -0.549868,1.22896 -2.077526,1.510506 -2.19274,0.391756 -5.689343,1.364662 -1.680052,0.49948 -2.706693,0.728426 -1.023726,0.269027 -2.125937,0.384743 -1.336016,0.140265 -2.114662,-0.383797 -0.778635,-0.524064 -0.866305,-1.726479 -0.09647,-1.322655 0.486838,-2.555122 0.580338,-1.272546 1.713877,-2.805108 1.748956,-2.324141 5.056876,-6.346672 2.753476,-3.318123 3.811456,-4.963913 1.057969,-1.64579 0.94985,-3.128768 z"
       style="font-size:50.8px;line-height:1.25;font-family:Sriracha;-inkscape-font-specification:'Sriracha, Normal';letter-spacing:0px;word-spacing:0px;baseline-shift:super;fill:#ff473e;stroke-width:0.191292"
       id="path29300" />
    <path
       d="m 73.547357,52.482309 q -0.09053,-1.242495 0.473891,-2.271052 0.597872,-1.032064 1.766897,-1.154795 1.235806,-0.129742 2.204829,0.697431 1.002419,0.823667 1.087163,1.986001 0.0847,1.162333 -0.789096,2.102209 -0.873851,0.939875 -2.109668,1.069619 -1.20241,0.126231 -1.889624,-0.528587 -0.656722,-0.698411 -0.744392,-1.900826 z m 4.024273,6.726058 q -1.139039,8.843236 -1.755732,13.310193 -0.0869,0.655315 -0.03135,1.416844 l 0.115236,1.118745 q 0.04972,0.681368 -0.297275,1.000504 -0.313544,0.31563 -1.446236,0.474934 -1.102211,0.115725 -1.690491,-0.105226 -0.588258,-0.220952 -0.655468,-1.142803 -0.03212,-0.440886 0.493119,-4.777082 0.558668,-4.339705 1.531519,-11.30768 l -0.855866,-1.121764 q -0.1089,-0.109736 -0.120615,-0.270049 -0.02926,-0.400804 0.68805,-0.718432 0.714362,-0.357707 2.016971,-0.494465 1.135618,-0.119222 1.494669,0.650826 0.389521,0.726463 0.513513,1.965453 z"
       style="font-size:50.8px;line-height:1.25;font-family:Sriracha;-inkscape-font-specification:'Sriracha, Normal';letter-spacing:0px;word-spacing:0px;baseline-shift:super;fill:#ff473e;stroke-width:0.191292"
       id="path29302" />
    <path
       d="m 82.747244,69.173949 q 0.655941,-4.390303 1.320242,-9.589231 -2.353901,0.48945 -2.97682,0.716398 -0.688457,-0.210432 -1.063381,-0.736493 -0.411235,-0.562636 -0.469678,-1.364245 -0.04675,-0.641287 0.282667,-1.200907 0.326491,-0.5997 0.885533,-0.779553 2.069155,-0.701881 7.961833,-2.047503 5.926074,-1.349128 9.674027,-2.106098 0.197483,-0.06112 0.531487,-0.09618 1.352286,0.544612 1.437026,1.706946 0.0526,0.721449 -0.498924,1.465937 -0.551529,0.744486 -1.299287,1.105702 l -1.324334,0.300585 -0.611314,10.080227 q -0.02464,0.12375 -0.0044,0.404314 0.04092,0.561127 0.298089,0.857224 0.254254,0.256018 0.621665,0.217444 0.634601,-0.06662 1.906333,-1.088658 0.591182,0.26103 0.862972,0.757531 0.3052,0.492993 0.34319,1.01404 0.11103,1.523059 -0.993686,2.527562 -1.10473,1.004501 -2.540945,1.155284 -1.870429,0.196369 -3.087865,-0.806661 -1.184029,-1.006537 -1.338909,-3.130803 -0.02629,-0.360724 -0.0121,-1.089189 l 0.617166,-10.000067 -5.166623,1.148235 q -0.508992,5.021073 -1.012539,9.193442 -0.473077,4.128781 -0.683089,5.402835 -0.04928,0.247501 -0.65758,0.674847 -0.571978,0.463923 -0.805783,0.488469 -0.935209,0.09819 -1.844535,-0.371771 -0.909326,-0.469955 -1.066714,-1.705439 0.02761,-0.08368 0.272646,-0.876755 0.24508,-0.793089 0.44341,-2.227466 z"
       style="font-size:50.8px;line-height:1.25;font-family:Sriracha;-inkscape-font-specification:'Sriracha, Normal';letter-spacing:0px;word-spacing:0px;baseline-shift:super;fill:#ff473e;stroke-width:0.191292"
       id="path29304" />
    <path
       d="m 112.02796,84.261328 q 0.32338,-0.150678 1.08248,-0.21709 0.88055,-0.07704 1.01072,1.410798 l 0.0201,0.579574 -5.3798,5.304907 q 0.40688,0.453946 0.91281,0.991015 0.50593,0.537069 0.74239,0.791749 1.03958,1.041117 1.28931,1.447618 0.6012,0.926488 0.67293,1.746312 0.0558,0.637644 -0.3177,0.915091 -0.34577,0.244426 -0.98341,0.300213 -0.48583,0.0425 -0.85551,0.01361 -0.36969,-0.02889 -0.72228,-0.212176 l -2.15202,-2.565398 q -0.23912,-0.285044 -0.54427,-0.625504 -0.27745,-0.37348 -0.31578,-0.461915 l -4.41763,4.761778 q -0.69686,0.428124 -1.24341,0.475941 -0.72873,0.06376 -1.196334,-0.384877 -0.467601,-0.448633 -0.518074,-1.02555 -0.02125,-0.242908 1.826028,-2.209714 1.875,-1.999826 3.80162,-3.759398 -0.3712,-0.395874 -0.61031,-0.680919 -0.23911,-0.285044 -0.43989,-0.481654 l -0.50859,-0.567432 -1.86661,-2.100829 q -0.23645,-0.254681 -0.27364,-0.679777 -0.0505,-0.576916 0.40081,-1.014153 0.45129,-0.437236 1.24076,-0.506305 l 0.334,-0.02922 q 0.36437,-0.03188 0.49114,0.01822 l 3.49675,3.946978 z"
       style="font-size:50.8px;line-height:1.25;font-family:Sriracha;-inkscape-font-specification:'Sriracha, Normal';letter-spacing:0px;word-spacing:0px;baseline-shift:baseline;fill:#ff473e;stroke-width:0.15875"
       id="path29306" />
    <path
       d="m 120.19089,98.641506 q 0,-0.603505 0.13716,-1.152145 l 5.21208,-24.249888 q -1.32588,1.207008 -3.01752,2.359152 -1.64592,1.09728 -2.14884,1.09728 -0.64008,0 -1.46304,-0.493776 -0.77724,-0.493776 -1.3716,-1.152144 -0.54864,-0.658368 -0.54864,-1.09728 0,-0.164592 0.0457,-0.219456 0.4572,-0.713232 2.37744,-2.359152 1.96596,-1.700784 5.07492,-4.169664 3.01752,-2.414016 3.56616,-2.907792 0.41148,-0.329184 0.9144,-0.329184 1.05156,0 1.96596,1.042416 0.96012,1.042416 0.96012,2.414016 0,0.05486 0.0457,0.329184 0.0914,0.219456 0.0914,0.603504 0,0.109728 -0.0914,0.768096 -0.6858,4.553712 -2.46888,13.002768 -1.73736,8.394192 -1.96596,9.6012 -1.00584,4.608576 -1.143,5.431536 -0.36576,1.920239 -1.143,2.962663 -0.73152,1.04241 -2.42316,1.04241 -1.3716,0 -2.01168,-0.54864 -0.59436,-0.54864 -0.59436,-1.975104 z"
       style="font-size:50.8px;line-height:1.25;font-family:Sriracha;-inkscape-font-specification:'Sriracha, Normal';letter-spacing:0px;word-spacing:0px;baseline-shift:baseline;fill:#ff473e;stroke-width:0.260852"
       id="path29308" />
    <path
       d="m 141.70952,97.478933 q -3.10896,0 -5.34924,-1.810507 -2.24028,-1.810512 -3.38328,-4.828032 -1.143,-3.072384 -1.143,-6.748272 0,-1.975104 0.32004,-3.84048 1.41732,-9.05256 5.30352,-14.484095 3.8862,-5.431536 10.78992,-5.431536 4.29768,0 6.53796,3.29184 2.24028,3.236976 2.24028,9.546335 0,5.76072 -1.64592,11.356848 -1.64592,5.541264 -5.12064,9.272016 -3.429,3.675883 -8.54964,3.675883 z m -0.13716,-5.212075 q 2.7432,0 4.93776,-3.01752 2.24028,-3.01752 3.429,-7.626096 1.23444,-4.608576 1.23444,-9.162288 0,-6.199631 -4.29768,-6.199631 -2.5146,0 -4.66344,2.962655 -2.14884,2.907792 -3.429,7.242048 -1.23444,4.279392 -1.23444,8.010144 0,3.895344 1.00584,5.870448 1.05156,1.92024 3.01752,1.92024 z"
       style="font-size:50.8px;line-height:1.25;font-family:Sriracha;-inkscape-font-specification:'Sriracha, Normal';letter-spacing:0px;word-spacing:0px;baseline-shift:baseline;fill:#ff473e;stroke-width:0.260852"
       id="path29310" />
    <path
       d="m 167.25114,49.711837 q 0,-0.658368 -0.57607,-1.069848 -0.54864,-0.438912 -1.42647,-0.438912 -0.90525,0 -1.61849,0.219456 -0.6858,0.219456 -1.31673,0.740664 -0.35662,0.27432 -0.49378,0.54864 -0.13716,0.27432 -0.24689,0.6858 -0.13716,0.438912 -0.35661,0.630936 -0.19203,0.192024 -0.79553,0.192024 -0.93269,0 -1.50876,-0.41148 -0.54864,-0.41148 -0.54864,-1.152144 0,-0.905256 0.98755,-1.865376 0.98755,-0.96012 2.63347,-1.591056 1.64592,-0.630936 3.5113,-0.630936 1.59106,0 2.8255,0.521208 1.26187,0.493776 1.94767,1.3716 0.71323,0.877824 0.71323,1.975104 0,1.261872 -0.98755,2.660904 -0.96012,1.3716 -2.35915,2.660904 -1.3716,1.289304 -3.48387,3.01752 -0.35661,0.301752 -1.23444,1.042416 -0.87782,0.740664 -1.48133,1.316736 -0.6035,0.548639 -0.98755,1.014983 1.26187,-0.301752 3.62103,-0.740663 2.35915,-0.438912 3.78561,-0.576072 0.19203,-0.02743 0.52121,-0.02743 0.52121,0 0.87782,0.27432 0.35662,0.246888 0.35662,0.493776 0,0.740663 -0.52121,1.563623 -0.52121,0.795528 -1.78308,0.877824 -1.81051,0.109728 -4.7183,0.521208 -1.39903,0.219456 -2.24943,0.301752 -0.85039,0.109728 -1.75564,0.109728 -1.09728,0 -1.70079,-0.41148 -0.6035,-0.41148 -0.6035,-1.23444 0,-0.905256 0.54864,-1.700783 0.54864,-0.82296 1.56362,-1.78308 1.56363,-1.453896 4.49885,-3.950208 2.44145,-2.0574 3.40157,-3.099816 0.96012,-1.042416 0.96012,-2.0574 z"
       style="font-size:50.8px;line-height:1.25;font-family:Sriracha;-inkscape-font-specification:'Sriracha, Normal';letter-spacing:0px;word-spacing:0px;baseline-shift:super;fill:#ff473e;stroke-width:0.142875"
       id="path29312" />
    <g
       id="Layer_5"
       transform="matrix(0.28993416,-0.02536595,0.013075,0.14944788,17.857367,65.434935)">
      <path
         fill="#ff473e"
         d="m 135.065,364.032 c 0,0 1.203,-0.492 3.458,-1.415 2.266,-0.888 5.567,-2.263 9.808,-3.88 4.428,-1.544 9.82,-3.526 16.03,-5.583 3.079,-0.965 6.356,-1.992 9.81,-3.074 1.731,-0.534 3.506,-1.083 5.324,-1.644 1.825,-0.515 3.692,-1.042 5.599,-1.58 3.822,-1.055 7.802,-2.155 11.923,-3.293 4.131,-1.066 8.414,-2.112 12.82,-3.189 2.204,-0.536 4.438,-1.079 6.699,-1.629 2.27,-0.495 4.568,-0.997 6.89,-1.504 4.649,-0.995 9.39,-2.098 14.239,-3.022 4.85,-0.919 9.776,-1.895 14.776,-2.805 2.497,-0.477 5.016,-0.909 7.551,-1.316 2.534,-0.418 5.08,-0.838 7.637,-1.26 10.227,-1.707 20.667,-3.05 31.104,-4.428 5.226,-0.622 10.458,-1.193 15.673,-1.733 2.607,-0.274 5.208,-0.548 7.802,-0.821 2.6,-0.215 5.192,-0.428 7.774,-0.642 5.165,-0.4 10.29,-0.797 15.353,-1.19 5.073,-0.257 10.085,-0.51 15.014,-0.759 9.853,-0.534 19.41,-0.572 28.454,-0.715 9.047,-0.098 17.617,0.197 25.508,0.349 7.896,0.228 15.137,0.751 21.542,1.119 3.204,0.233 6.198,0.368 8.969,0.675 2.768,0.282 5.311,0.541 7.608,0.775 4.591,0.444 8.191,0.901 10.644,1.176 2.452,0.305 3.76,0.468 3.76,0.468 7.456,0.928 12.748,7.725 11.82,15.181 -0.809,6.495 -6.07,11.348 -12.341,11.878 l -0.391,0.03 c 0,0 -1.279,0.109 -3.678,0.313 -2.397,0.174 -5.911,0.482 -10.375,0.737 -4.465,0.3 -9.876,0.563 -16.086,1.077 -3.102,0.214 -6.403,0.442 -9.882,0.683 -3.478,0.231 -7.131,0.395 -10.944,0.745 -3.811,0.292 -7.781,0.596 -11.889,0.91 -4.107,0.291 -8.351,0.553 -12.711,0.972 -4.36,0.364 -8.838,0.738 -13.416,1.12 -4.579,0.308 -9.25,0.784 -13.999,1.246 -4.75,0.426 -9.58,0.859 -14.469,1.297 -4.883,0.5 -9.826,1.007 -14.808,1.517 -2.492,0.242 -4.993,0.486 -7.503,0.73 -2.505,0.284 -5.018,0.569 -7.536,0.854 -5.037,0.553 -10.094,1.108 -15.15,1.663 -5.049,0.62 -10.091,1.288 -15.126,1.864 -5.039,0.552 -10.033,1.266 -14.994,1.943 -9.945,1.216 -19.676,2.72 -29.126,4.028 -4.711,0.721 -9.343,1.43 -13.877,2.124 -4.538,0.688 -8.976,1.367 -13.275,2.104 -4.311,0.704 -8.504,1.389 -12.56,2.051 -4.041,0.715 -7.946,1.405 -11.694,2.068 -1.877,0.326 -3.715,0.646 -5.511,0.958 -1.786,0.338 -3.532,0.669 -5.233,0.991 -3.411,0.631 -6.646,1.229 -9.686,1.791 -5.978,1.169 -11.19,2.187 -15.483,3.026 -4.426,1.008 -7.936,1.696 -10.313,2.214 -2.388,0.483 -3.662,0.741 -3.662,0.741 l -0.015,0.003 c -7.369,1.491 -14.55,-3.274 -16.041,-10.643 -1.318,-6.51 2.254,-12.874 8.185,-15.296 z"
         id="path4594" />
    </g>
    <g
       id="Layer_6"
       transform="matrix(0.28993416,-0.02536595,0.013075,0.14944788,17.103966,64.885871)">
      <path
         fill="#ff473e"
         d="m 59.639,449.102 c 0,0 1.499,-0.547 4.309,-1.574 1.407,-0.506 3.143,-1.129 5.184,-1.862 2.063,-0.73 4.321,-1.599 7.125,-2.45 2.756,-0.876 5.806,-1.847 9.128,-2.903 1.665,-0.524 3.397,-1.069 5.194,-1.634 1.805,-0.562 3.615,-1.05 5.519,-1.606 3.794,-1.088 7.831,-2.246 12.087,-3.467 1.065,-0.305 2.143,-0.614 3.235,-0.927 1.094,-0.286 2.202,-0.576 3.322,-0.869 2.242,-0.582 4.536,-1.178 6.878,-1.786 4.687,-1.2 9.566,-2.521 14.627,-3.758 5.057,-1.253 10.308,-2.45 15.698,-3.723 5.388,-1.297 10.94,-2.494 16.614,-3.74 5.673,-1.247 11.47,-2.531 17.384,-3.724 5.919,-1.164 11.937,-2.348 18.028,-3.546 6.091,-1.209 12.273,-2.332 18.515,-3.409 6.241,-1.08 12.523,-2.224 18.848,-3.27 6.336,-0.986 12.696,-1.977 19.056,-2.967 3.182,-0.487 6.356,-1.015 9.545,-1.442 3.189,-0.431 6.374,-0.862 9.553,-1.292 6.358,-0.864 12.691,-1.723 18.983,-2.512 6.309,-0.706 12.567,-1.406 18.75,-2.097 3.092,-0.336 6.166,-0.669 9.218,-1 3.055,-0.311 6.101,-0.562 9.117,-0.82 6.033,-0.508 11.965,-1.008 17.771,-1.497 2.9,-0.251 5.785,-0.41 8.636,-0.565 2.849,-0.161 5.663,-0.32 8.44,-0.477 5.552,-0.306 10.952,-0.603 16.176,-0.891 5.247,-0.118 10.316,-0.233 15.183,-0.343 4.868,-0.084 9.515,-0.268 13.963,-0.255 4.453,0.07 8.677,0.137 12.646,0.2 3.965,0.07 7.676,0.136 11.107,0.197 1.71,0.016 3.371,0.149 4.95,0.237 1.58,0.095 3.087,0.186 4.517,0.272 5.718,0.328 10.203,0.673 13.259,0.875 3.054,0.227 4.683,0.349 4.683,0.349 8.314,0.619 14.551,7.86 13.932,16.174 -0.571,7.668 -6.776,13.57 -14.26,13.955 l -0.688,0.034 c 0,0 -1.557,0.082 -4.475,0.235 -2.917,0.128 -7.193,0.364 -12.624,0.553 -1.357,0.052 -2.787,0.106 -4.287,0.163 -1.5,0.063 -3.063,0.09 -4.712,0.239 -3.287,0.222 -6.842,0.462 -10.64,0.719 -3.794,0.249 -7.831,0.514 -12.086,0.794 -4.258,0.289 -8.752,0.739 -13.428,1.127 -4.677,0.405 -9.549,0.828 -14.591,1.265 -5.049,0.516 -10.268,1.049 -15.634,1.597 -2.682,0.276 -5.4,0.556 -8.153,0.839 -2.752,0.277 -5.536,0.559 -8.352,0.935 -5.634,0.668 -11.39,1.35 -17.243,2.044 -2.927,0.342 -5.878,0.687 -8.851,1.035 -2.972,0.394 -5.964,0.79 -8.976,1.189 -6.024,0.777 -12.121,1.564 -18.266,2.357 -6.142,0.871 -12.332,1.749 -18.547,2.63 -3.108,0.435 -6.222,0.871 -9.34,1.307 -3.114,0.469 -6.232,0.939 -9.349,1.408 -6.235,0.942 -12.471,1.885 -18.682,2.823 -6.21,0.947 -12.384,1.984 -18.517,2.961 -12.281,1.874 -24.302,4.076 -35.983,5.971 -5.824,1.026 -11.55,2.035 -17.156,3.023 -5.608,0.976 -11.103,1.91 -16.415,2.947 -5.324,0.996 -10.494,2.007 -15.517,2.889 -5.017,0.907 -9.823,1.902 -14.461,2.792 -9.287,1.783 -17.717,3.538 -25.215,5.071 -1.862,0.39 -3.717,0.74 -5.412,1.129 -1.706,0.375 -3.351,0.737 -4.932,1.084 -3.169,0.686 -6.079,1.316 -8.708,1.885 -1.313,0.281 -2.556,0.545 -3.776,0.864 -1.209,0.29 -2.342,0.562 -3.397,0.815 -2.109,0.506 -3.903,0.936 -5.357,1.285 -2.913,0.683 -4.467,1.047 -4.467,1.047 l -0.049,0.011 c -8.128,1.905 -16.261,-3.139 -18.167,-11.267 -1.764,-7.536 2.44,-15.072 9.533,-17.653 z"
         id="path4597" />
    </g>
  </g>
</svg>
