<?xml version="1.0" encoding="UTF-8" standalone="no"?>
<!-- Created with Inkscape (http://www.inkscape.org/) -->

<svg
   width="145.16656mm"
   height="134.46317mm"
   viewBox="0 0 145.16656 134.46316"
   version="1.1"
   id="svg5"
   inkscape:version="1.1.2 (0a00cf5339, 2022-02-04)"
   sodipodi:docname="e2ipi102.svg"
   inkscape:export-filename="/home/jmay/Documents/GitHub/johnpmay/100/e2ipi102.png"
   inkscape:export-xdpi="22.796778"
   inkscape:export-ydpi="22.796778"
   xmlns:inkscape="http://www.inkscape.org/namespaces/inkscape"
   xmlns:sodipodi="http://sodipodi.sourceforge.net/DTD/sodipodi-0.dtd"
   xmlns="http://www.w3.org/2000/svg"
   xmlns:svg="http://www.w3.org/2000/svg">
  <sodipodi:namedview
     id="namedview7"
     pagecolor="#ffffff"
     bordercolor="#666666"
     borderopacity="1.0"
     inkscape:pageshadow="2"
     inkscape:pageopacity="0.0"
     inkscape:pagecheckerboard="0"
     inkscape:document-units="mm"
     showgrid="false"
     inkscape:zoom="0.25"
     inkscape:cx="746"
     inkscape:cy="114"
     inkscape:window-width="1883"
     inkscape:window-height="1104"
     inkscape:window-x="2560"
     inkscape:window-y="150"
     inkscape:window-maximized="0"
     inkscape:current-layer="layer1"
     fit-margin-top="5"
     fit-margin-left="1"
     fit-margin-right="1"
     fit-margin-bottom="5" />
  <defs
     id="defs2" />
  <g
     inkscape:label="Layer 1"
     inkscape:groupmode="layer"
     id="layer1"
     transform="translate(-26.815332,-18.268643)">
    <path
       d="m 41.513875,136.34638 q -6.546485,0.85911 -9.826036,-3.43581 -3.279551,-4.29494 -3.735413,-12.11064 -0.666247,-11.42295 1.905321,-21.574534 2.638372,-10.160337 7.586018,-16.504239 5.007442,-6.472911 11.15312,-7.279425 3.740836,-0.490923 6.503695,3.023679 2.755841,3.39436 3.183642,10.729092 0.245465,4.208452 -1.129656,7.175635 -1.315325,2.838158 -3.994727,5.370702 -2.686409,2.4123 -8.74126,7.08408 -5.481707,4.1119 -8.888902,6.86113 -0.161997,1.83869 -0.04983,3.76256 0.196361,3.36675 1.837979,4.96875 1.708421,1.59322 4.580851,1.21626 1.803626,-0.23669 4.064511,-1.86617 2.260885,-1.62949 2.742872,-3.75247 1.836406,-7.75308 3.706824,-7.99853 2.738835,-0.35943 3.786266,1.44171 1.107205,1.67214 1.307262,3.94796 -0.577192,3.95295 -2.683791,8.22771 -2.113606,4.15458 -5.573568,7.15303 -3.459973,2.99847 -7.735222,3.55952 z M 36.75489,104.37835 q 6.388866,-4.715597 10.474761,-8.523162 4.078877,-3.927817 3.889523,-7.174336 -0.08415,-1.4429 -1.00166,-2.170625 -0.924517,-0.847968 -1.926529,-0.716472 -2.004024,0.262995 -4.447949,3.370442 -2.377133,3.09868 -4.350126,7.355943 -1.972993,4.25724 -2.63802,7.85821 z"
       style="font-size:50.8px;line-height:1.25;font-family:Sriracha;-inkscape-font-specification:'Sriracha, Normal';letter-spacing:0px;word-spacing:0px;baseline-shift:baseline;fill:#ff473e;stroke-width:0.468568"
       id="path29298" />
    <path
       d="m 64.780691,40.23084 q -0.07018,-1.4429 -0.815375,-2.234252 -0.714758,-0.856734 -1.783573,-0.688419 -1.102211,0.173586 -1.947253,0.7913 -0.811624,0.612463 -1.524314,1.875735 -0.404987,0.669585 -0.542773,1.297092 -0.137775,0.627508 -0.227546,1.550358 -0.120241,0.988231 -0.366993,1.451155 -0.213345,0.457665 -0.948156,0.573383 -1.135618,0.178834 -1.880857,-0.612519 -0.711843,-0.796614 -0.790735,-2.419872 -0.09647,-1.983987 1.003706,-4.277568 1.100132,-2.293583 3.036957,-3.991952 1.936814,-1.698372 4.208039,-2.056042 1.937221,-0.305073 3.495767,0.600526 1.589016,0.840218 2.517537,2.632587 0.961917,1.787105 1.078803,4.191936 0.13442,2.765553 -0.918962,6.021066 -1.022912,3.190136 -2.588993,6.284064 -1.532674,3.08867 -3.920411,7.281288 -0.402061,0.729707 -1.391973,2.521284 -0.989923,1.791575 -1.663365,3.16983 -0.676368,1.31813 -1.094291,2.41382 1.504272,-0.903282 4.329952,-2.317562 2.82568,-1.414282 4.547895,-1.9884 0.230879,-0.09695 0.631686,-0.160066 0.634612,-0.09993 1.098031,0.432892 0.460504,0.472709 0.486805,1.013795 0.07887,1.623258 -0.468039,3.526816 -0.549868,1.84344 -2.077526,2.265759 -2.19274,0.587634 -5.689343,2.046993 -1.680052,0.74922 -2.706693,1.092639 -1.023726,0.403541 -2.125937,0.577115 -1.336016,0.210397 -2.114662,-0.575696 -0.778635,-0.786096 -0.866305,-2.589718 -0.09647,-1.983983 0.486838,-3.832683 0.580338,-1.908819 1.713877,-4.207662 1.748956,-3.486212 5.056876,-9.520008 2.753476,-4.977185 3.811456,-7.44587 1.057969,-2.468685 0.94985,-4.693152 z"
       style="font-size:50.8px;line-height:1.25;font-family:Sriracha;-inkscape-font-specification:'Sriracha, Normal';letter-spacing:0px;word-spacing:0px;baseline-shift:super;fill:#ff473e;stroke-width:0.234284"
       id="path29300" />
    <path
       d="m 73.547357,30.462697 q -0.09053,-1.863742 0.473891,-3.406578 0.597872,-1.548096 1.766897,-1.732192 1.235806,-0.194613 2.204829,1.046146 1.002419,1.235501 1.087163,2.979002 0.0847,1.743499 -0.789096,3.153313 -0.873851,1.409813 -2.109668,1.604429 -1.20241,0.189346 -1.889624,-0.792881 -0.656722,-1.047616 -0.744392,-2.851239 z m 4.024273,10.089087 q -1.139039,13.264854 -1.755732,19.96529 -0.0869,0.982972 -0.03135,2.125266 l 0.115236,1.678117 q 0.04972,1.022052 -0.297275,1.500756 -0.313544,0.473445 -1.446236,0.712401 -1.102211,0.173588 -1.690491,-0.157839 -0.588258,-0.331428 -0.655468,-1.714204 -0.03212,-0.661329 0.493119,-7.165623 0.558668,-6.509558 1.531519,-16.96152 l -0.855866,-1.682646 q -0.1089,-0.164604 -0.120615,-0.405074 -0.02926,-0.601206 0.68805,-1.077648 0.714362,-0.53656 2.016971,-0.741697 1.135618,-0.178833 1.494669,0.976239 0.389521,1.089694 0.513513,2.948179 z"
       style="font-size:50.8px;line-height:1.25;font-family:Sriracha;-inkscape-font-specification:'Sriracha, Normal';letter-spacing:0px;word-spacing:0px;baseline-shift:super;fill:#ff473e;stroke-width:0.234284"
       id="path29302" />
    <path
       d="m 82.747244,55.500157 q 0.655941,-6.585454 1.320242,-14.383846 -2.353901,0.734175 -2.97682,1.074597 -0.688457,-0.315648 -1.063381,-1.10474 -0.411235,-0.843954 -0.469678,-2.046367 -0.04675,-0.961931 0.282667,-1.801361 0.326491,-0.89955 0.885533,-1.169329 2.069155,-1.052822 7.961833,-3.071255 5.926074,-2.023692 9.674027,-3.159147 0.197483,-0.09168 0.531487,-0.14427 1.352286,0.816918 1.437026,2.560419 0.0526,1.082174 -0.498924,2.198906 -0.551529,1.116729 -1.299287,1.658553 l -1.324334,0.450877 -0.611314,15.120341 q -0.02464,0.185625 -0.0044,0.606471 0.04092,0.84169 0.298089,1.285836 0.254254,0.384027 0.621665,0.326166 0.634601,-0.09993 1.906333,-1.632987 0.591182,0.391545 0.862972,1.136296 0.3052,0.73949 0.34319,1.52106 0.11103,2.284589 -0.993686,3.791343 -1.10473,1.506752 -2.540945,1.732926 -1.870429,0.294554 -3.087865,-1.209991 -1.184029,-1.509806 -1.338909,-4.696205 -0.02629,-0.541086 -0.0121,-1.633783 l 0.617166,-15.000101 -5.166623,1.722353 q -0.508992,7.531609 -1.012539,13.790163 -0.473077,6.193171 -0.683089,8.104252 -0.04928,0.371252 -0.65758,1.012271 -0.571978,0.695884 -0.805783,0.732703 -0.935209,0.147285 -1.844535,-0.557656 -0.909326,-0.704933 -1.066714,-2.558159 0.02761,-0.12552 0.272646,-1.315132 0.24508,-1.189634 0.44341,-3.341199 z"
       style="font-size:50.8px;line-height:1.25;font-family:Sriracha;-inkscape-font-specification:'Sriracha, Normal';letter-spacing:0px;word-spacing:0px;baseline-shift:super;fill:#ff473e;stroke-width:0.234284"
       id="path29304" />
    <path
       d="m 112.02796,81.306228 q 0.32338,-0.226017 1.08248,-0.325635 0.88055,-0.11556 1.01072,2.116197 l 0.0201,0.869361 -5.3798,7.95736 q 0.40688,0.680919 0.91281,1.486523 0.50593,0.805603 0.74239,1.187623 1.03958,1.561676 1.28931,2.171427 0.6012,1.389732 0.67293,2.619468 0.0558,0.956468 -0.3177,1.372638 -0.34577,0.36664 -0.98341,0.45032 -0.48583,0.0637 -0.85551,0.0204 -0.36969,-0.0433 -0.72228,-0.31826 l -2.15202,-3.848098 q -0.23912,-0.427566 -0.54427,-0.938256 -0.27745,-0.56022 -0.31578,-0.692872 l -4.41763,7.142666 q -0.69686,0.64219 -1.24341,0.71391 -0.72873,0.0956 -1.196334,-0.57731 -0.467601,-0.67295 -0.518074,-1.53833 -0.02125,-0.36436 1.826028,-3.314569 1.875,-2.999739 3.80162,-5.639097 -0.3712,-0.593811 -0.61031,-1.021379 -0.23911,-0.427566 -0.43989,-0.722481 l -0.50859,-0.851148 -1.86661,-3.151243 q -0.23645,-0.382022 -0.27364,-1.019666 -0.0505,-0.865374 0.40081,-1.521229 0.45129,-0.655854 1.24076,-0.759458 l 0.334,-0.04383 q 0.36437,-0.04782 0.49114,0.02733 l 3.49675,5.920467 z"
       style="font-size:50.8px;line-height:1.25;font-family:Sriracha;-inkscape-font-specification:'Sriracha, Normal';letter-spacing:0px;word-spacing:0px;baseline-shift:baseline;fill:#ff473e;stroke-width:0.194428"
       id="path29306" />
    <path
       d="m 120.19089,102.87649 q 0,-0.90525 0.13716,-1.72821 l 5.21208,-36.374835 q -1.32588,1.810512 -3.01752,3.538728 -1.64592,1.64592 -2.14884,1.64592 -0.64008,0 -1.46304,-0.740664 -0.77724,-0.740664 -1.3716,-1.728216 -0.54864,-0.987552 -0.54864,-1.64592 0,-0.246888 0.0457,-0.329184 0.4572,-1.069848 2.37744,-3.538728 1.96596,-2.551176 5.07492,-6.254496 3.01752,-3.621024 3.56616,-4.361688 0.41148,-0.493776 0.9144,-0.493776 1.05156,0 1.96596,1.563624 0.96012,1.563624 0.96012,3.621024 0,0.08229 0.0457,0.493776 0.0914,0.329184 0.0914,0.905256 0,0.164592 -0.0914,1.152144 -0.6858,6.830568 -2.46888,19.504152 -1.73736,12.591288 -1.96596,14.4018 -1.00584,6.912864 -1.143,8.147303 -0.36576,2.88036 -1.143,4.444 -0.73152,1.56361 -2.42316,1.56361 -1.3716,0 -2.01168,-0.82296 -0.59436,-0.82296 -0.59436,-2.96266 z"
       style="font-size:50.8px;line-height:1.25;font-family:Sriracha;-inkscape-font-specification:'Sriracha, Normal';letter-spacing:0px;word-spacing:0px;baseline-shift:baseline;fill:#ff473e;stroke-width:0.319477"
       id="path29308" />
    <path
       d="m 141.70952,101.13264 q -3.10896,0 -5.34924,-2.715765 -2.24028,-2.715768 -3.38328,-7.242048 -1.143,-4.608576 -1.143,-10.122408 0,-2.962656 0.32004,-5.76072 1.41732,-13.57884 5.30352,-21.726143 3.8862,-8.147304 10.78992,-8.147304 4.29768,0 6.53796,4.93776 2.24028,4.855464 2.24028,14.319503 0,8.64108 -1.64592,17.035272 -1.64592,8.311896 -5.12064,13.908024 -3.429,5.513829 -8.54964,5.513829 z m -0.13716,-7.818117 q 2.7432,0 4.93776,-4.52628 2.24028,-4.52628 3.429,-11.439144 1.23444,-6.912864 1.23444,-13.743432 0,-9.299447 -4.29768,-9.299447 -2.5146,0 -4.66344,4.443983 -2.14884,4.361688 -3.429,10.863072 -1.23444,6.419088 -1.23444,12.015216 0,5.843016 1.00584,8.805672 1.05156,2.88036 3.01752,2.88036 z"
       style="font-size:50.8px;line-height:1.25;font-family:Sriracha;-inkscape-font-specification:'Sriracha, Normal';letter-spacing:0px;word-spacing:0px;baseline-shift:baseline;fill:#ff473e;stroke-width:0.319477"
       id="path29310" />
    <path
       d="m 167.25114,29.481991 q 0,-0.987552 -0.57607,-1.604772 -0.54864,-0.658368 -1.42647,-0.658368 -0.90525,0 -1.61849,0.329184 -0.6858,0.329184 -1.31673,1.110996 -0.35662,0.41148 -0.49378,0.82296 -0.13716,0.41148 -0.24689,1.0287 -0.13716,0.658368 -0.35661,0.946404 -0.19203,0.288036 -0.79553,0.288036 -0.93269,0 -1.50876,-0.61722 -0.54864,-0.61722 -0.54864,-1.728216 0,-1.357884 0.98755,-2.798064 0.98755,-1.44018 2.63347,-2.386584 1.64592,-0.946404 3.5113,-0.946404 1.59106,0 2.8255,0.781812 1.26187,0.740664 1.94767,2.0574 0.71323,1.316736 0.71323,2.962656 0,1.892808 -0.98755,3.991356 -0.96012,2.0574 -2.35915,3.991356 -1.3716,1.933956 -3.48387,4.52628 -0.35661,0.452628 -1.23444,1.563624 -0.87782,1.110996 -1.48133,1.975104 -0.6035,0.822959 -0.98755,1.522475 1.26187,-0.452628 3.62103,-1.110995 2.35915,-0.658368 3.78561,-0.864108 0.19203,-0.04115 0.52121,-0.04115 0.52121,0 0.87782,0.41148 0.35662,0.370332 0.35662,0.740664 0,1.110995 -0.52121,2.345435 -0.52121,1.193292 -1.78308,1.316736 -1.81051,0.164592 -4.7183,0.781812 -1.39903,0.329184 -2.24943,0.452628 -0.85039,0.164592 -1.75564,0.164592 -1.09728,0 -1.70079,-0.61722 -0.6035,-0.61722 -0.6035,-1.85166 0,-1.357884 0.54864,-2.551175 0.54864,-1.23444 1.56362,-2.67462 1.56363,-2.180844 4.49885,-5.925312 2.44145,-3.0861 3.40157,-4.649724 0.96012,-1.563624 0.96012,-3.0861 z"
       style="font-size:50.8px;line-height:1.25;font-family:Sriracha;-inkscape-font-specification:'Sriracha, Normal';letter-spacing:0px;word-spacing:0px;baseline-shift:super;fill:#ff473e;stroke-width:0.174985"
       id="path29312" />
    <g
       id="Layer_5"
       transform="matrix(0.28993416,-0.0285367,0.013075,0.16812886,17.857367,69.72598)">
      <path
         fill="#ff473e"
         d="m 135.065,364.032 c 0,0 1.203,-0.492 3.458,-1.415 2.266,-0.888 5.567,-2.263 9.808,-3.88 4.428,-1.544 9.82,-3.526 16.03,-5.583 3.079,-0.965 6.356,-1.992 9.81,-3.074 1.731,-0.534 3.506,-1.083 5.324,-1.644 1.825,-0.515 3.692,-1.042 5.599,-1.58 3.822,-1.055 7.802,-2.155 11.923,-3.293 4.131,-1.066 8.414,-2.112 12.82,-3.189 2.204,-0.536 4.438,-1.079 6.699,-1.629 2.27,-0.495 4.568,-0.997 6.89,-1.504 4.649,-0.995 9.39,-2.098 14.239,-3.022 4.85,-0.919 9.776,-1.895 14.776,-2.805 2.497,-0.477 5.016,-0.909 7.551,-1.316 2.534,-0.418 5.08,-0.838 7.637,-1.26 10.227,-1.707 20.667,-3.05 31.104,-4.428 5.226,-0.622 10.458,-1.193 15.673,-1.733 2.607,-0.274 5.208,-0.548 7.802,-0.821 2.6,-0.215 5.192,-0.428 7.774,-0.642 5.165,-0.4 10.29,-0.797 15.353,-1.19 5.073,-0.257 10.085,-0.51 15.014,-0.759 9.853,-0.534 19.41,-0.572 28.454,-0.715 9.047,-0.098 17.617,0.197 25.508,0.349 7.896,0.228 15.137,0.751 21.542,1.119 3.204,0.233 6.198,0.368 8.969,0.675 2.768,0.282 5.311,0.541 7.608,0.775 4.591,0.444 8.191,0.901 10.644,1.176 2.452,0.305 3.76,0.468 3.76,0.468 7.456,0.928 12.748,7.725 11.82,15.181 -0.809,6.495 -6.07,11.348 -12.341,11.878 l -0.391,0.03 c 0,0 -1.279,0.109 -3.678,0.313 -2.397,0.174 -5.911,0.482 -10.375,0.737 -4.465,0.3 -9.876,0.563 -16.086,1.077 -3.102,0.214 -6.403,0.442 -9.882,0.683 -3.478,0.231 -7.131,0.395 -10.944,0.745 -3.811,0.292 -7.781,0.596 -11.889,0.91 -4.107,0.291 -8.351,0.553 -12.711,0.972 -4.36,0.364 -8.838,0.738 -13.416,1.12 -4.579,0.308 -9.25,0.784 -13.999,1.246 -4.75,0.426 -9.58,0.859 -14.469,1.297 -4.883,0.5 -9.826,1.007 -14.808,1.517 -2.492,0.242 -4.993,0.486 -7.503,0.73 -2.505,0.284 -5.018,0.569 -7.536,0.854 -5.037,0.553 -10.094,1.108 -15.15,1.663 -5.049,0.62 -10.091,1.288 -15.126,1.864 -5.039,0.552 -10.033,1.266 -14.994,1.943 -9.945,1.216 -19.676,2.72 -29.126,4.028 -4.711,0.721 -9.343,1.43 -13.877,2.124 -4.538,0.688 -8.976,1.367 -13.275,2.104 -4.311,0.704 -8.504,1.389 -12.56,2.051 -4.041,0.715 -7.946,1.405 -11.694,2.068 -1.877,0.326 -3.715,0.646 -5.511,0.958 -1.786,0.338 -3.532,0.669 -5.233,0.991 -3.411,0.631 -6.646,1.229 -9.686,1.791 -5.978,1.169 -11.19,2.187 -15.483,3.026 -4.426,1.008 -7.936,1.696 -10.313,2.214 -2.388,0.483 -3.662,0.741 -3.662,0.741 l -0.015,0.003 c -7.369,1.491 -14.55,-3.274 -16.041,-10.643 -1.318,-6.51 2.254,-12.874 8.185,-15.296 z"
         id="path4594" />
    </g>
    <g
       id="Layer_6"
       transform="matrix(0.28993416,-0.0285367,0.013075,0.16812886,17.103966,69.108283)">
      <path
         fill="#ff473e"
         d="m 59.639,449.102 c 0,0 1.499,-0.547 4.309,-1.574 1.407,-0.506 3.143,-1.129 5.184,-1.862 2.063,-0.73 4.321,-1.599 7.125,-2.45 2.756,-0.876 5.806,-1.847 9.128,-2.903 1.665,-0.524 3.397,-1.069 5.194,-1.634 1.805,-0.562 3.615,-1.05 5.519,-1.606 3.794,-1.088 7.831,-2.246 12.087,-3.467 1.065,-0.305 2.143,-0.614 3.235,-0.927 1.094,-0.286 2.202,-0.576 3.322,-0.869 2.242,-0.582 4.536,-1.178 6.878,-1.786 4.687,-1.2 9.566,-2.521 14.627,-3.758 5.057,-1.253 10.308,-2.45 15.698,-3.723 5.388,-1.297 10.94,-2.494 16.614,-3.74 5.673,-1.247 11.47,-2.531 17.384,-3.724 5.919,-1.164 11.937,-2.348 18.028,-3.546 6.091,-1.209 12.273,-2.332 18.515,-3.409 6.241,-1.08 12.523,-2.224 18.848,-3.27 6.336,-0.986 12.696,-1.977 19.056,-2.967 3.182,-0.487 6.356,-1.015 9.545,-1.442 3.189,-0.431 6.374,-0.862 9.553,-1.292 6.358,-0.864 12.691,-1.723 18.983,-2.512 6.309,-0.706 12.567,-1.406 18.75,-2.097 3.092,-0.336 6.166,-0.669 9.218,-1 3.055,-0.311 6.101,-0.562 9.117,-0.82 6.033,-0.508 11.965,-1.008 17.771,-1.497 2.9,-0.251 5.785,-0.41 8.636,-0.565 2.849,-0.161 5.663,-0.32 8.44,-0.477 5.552,-0.306 10.952,-0.603 16.176,-0.891 5.247,-0.118 10.316,-0.233 15.183,-0.343 4.868,-0.084 9.515,-0.268 13.963,-0.255 4.453,0.07 8.677,0.137 12.646,0.2 3.965,0.07 7.676,0.136 11.107,0.197 1.71,0.016 3.371,0.149 4.95,0.237 1.58,0.095 3.087,0.186 4.517,0.272 5.718,0.328 10.203,0.673 13.259,0.875 3.054,0.227 4.683,0.349 4.683,0.349 8.314,0.619 14.551,7.86 13.932,16.174 -0.571,7.668 -6.776,13.57 -14.26,13.955 l -0.688,0.034 c 0,0 -1.557,0.082 -4.475,0.235 -2.917,0.128 -7.193,0.364 -12.624,0.553 -1.357,0.052 -2.787,0.106 -4.287,0.163 -1.5,0.063 -3.063,0.09 -4.712,0.239 -3.287,0.222 -6.842,0.462 -10.64,0.719 -3.794,0.249 -7.831,0.514 -12.086,0.794 -4.258,0.289 -8.752,0.739 -13.428,1.127 -4.677,0.405 -9.549,0.828 -14.591,1.265 -5.049,0.516 -10.268,1.049 -15.634,1.597 -2.682,0.276 -5.4,0.556 -8.153,0.839 -2.752,0.277 -5.536,0.559 -8.352,0.935 -5.634,0.668 -11.39,1.35 -17.243,2.044 -2.927,0.342 -5.878,0.687 -8.851,1.035 -2.972,0.394 -5.964,0.79 -8.976,1.189 -6.024,0.777 -12.121,1.564 -18.266,2.357 -6.142,0.871 -12.332,1.749 -18.547,2.63 -3.108,0.435 -6.222,0.871 -9.34,1.307 -3.114,0.469 -6.232,0.939 -9.349,1.408 -6.235,0.942 -12.471,1.885 -18.682,2.823 -6.21,0.947 -12.384,1.984 -18.517,2.961 -12.281,1.874 -24.302,4.076 -35.983,5.971 -5.824,1.026 -11.55,2.035 -17.156,3.023 -5.608,0.976 -11.103,1.91 -16.415,2.947 -5.324,0.996 -10.494,2.007 -15.517,2.889 -5.017,0.907 -9.823,1.902 -14.461,2.792 -9.287,1.783 -17.717,3.538 -25.215,5.071 -1.862,0.39 -3.717,0.74 -5.412,1.129 -1.706,0.375 -3.351,0.737 -4.932,1.084 -3.169,0.686 -6.079,1.316 -8.708,1.885 -1.313,0.281 -2.556,0.545 -3.776,0.864 -1.209,0.29 -2.342,0.562 -3.397,0.815 -2.109,0.506 -3.903,0.936 -5.357,1.285 -2.913,0.683 -4.467,1.047 -4.467,1.047 l -0.049,0.011 c -8.128,1.905 -16.261,-3.139 -18.167,-11.267 -1.764,-7.536 2.44,-15.072 9.533,-17.653 z"
         id="path4597" />
    </g>
  </g>
</svg>
